# xmcd CD database file
#
# Track frame offsets:
#	150
#	9602
#	22576
#	37426
#	49764
#	60865
#	68329
#	83331
#	98745
#	108909
#	123984
#	138609
#	153984
#	170072
#	182900
#
# Disc length: 2581 seconds
#
# Revision: 0
# Processed by: cddbd v1.5.2PL0 Copyright (c) Steve Scherf et al.
# Submitted via: CDex 1.70beta2
#
DISCID=b60a130f
DTITLE=Jeon Su Yeon - 바람결에 민들레가...
DYEAR=2007
DGENRE=New Age
TTITLE0=바람결에 민들레가
TTITLE1=안녕, 나의 은빛 돌고래 (with 기타)
TTITLE2=Fly, My Sunshine
TTITLE3=Perhaps Love (노래-전수연)
TTITLE4=자작나무 숲길로 (with 기타)
TTITLE5=오솔길
TTITLE6=하늘호수
TTITLE7=자각몽 (自覺夢)
TTITLE8=초록 갈매기의 꿈
TTITLE9=눈을 감고 잠시
TTITLE10=푸른바다 흰나비
TTITLE11=빈자리
TTITLE12=축하해요
TTITLE13=안녕, 나의 은빛 돌고래 (piano solo)
TTITLE14=자작나무 숲길로 (piano solo)
EXTD=YEAR: 2007
EXTT0=
EXTT1=
EXTT2=
EXTT3=
EXTT4=
EXTT5=
EXTT6=
EXTT7=
EXTT8=
EXTT9=
EXTT10=
EXTT11=
EXTT12=
EXTT13=
EXTT14=
PLAYORDER=
